# xmcd
#
# Track frame offsets: 
#        150
#        15750
#        34819
#        57470
#        80122
#        105394
#        132572
#
# Disc length: 2007 seconds
#
# Revision: 0
# Processed by: cddbd v1.5.1PL0 Copyright (c) Steve Scherf et al.
# Submitted via: ExactAudioCopy v0.95a5
#
DISCID=5407d507
DTITLE=NÂDIYA - L'histoire en 16-9
DYEAR=2005
DGENRE=R&B
TTITLE0=Lady Marmalade
TTITLE1=What A Feeling (Flashdance)
TTITLE2=Parle moi (6mondini remix)
TTITLE3=Et c'est parti (6mondini remix)
TTITLE4=Si loin de vous (6mondini remix)
TTITLE5=Signes (6mondini remix)
TTITLE6=Megamix
EXTD=
EXTT0=
EXTT1=
EXTT2=
EXTT3=
EXTT4=
EXTT5=
EXTT6=
PLAYORDER=
